<svg width="28" height="28" viewBox="0 0 28 28" fill="none" xmlns="http://www.w3.org/2000/svg">
<path d="M2.33337 8.16663L11.8591 14.8346C12.6305 15.3746 13.0162 15.6446 13.4357 15.7492C13.8063 15.8415 14.1938 15.8415 14.5644 15.7492C14.9839 15.6446 15.3696 15.3746 16.141 14.8346L25.6667 8.16663M7.93337 23.3333H20.0667C22.0269 23.3333 23.007 23.3333 23.7557 22.9518C24.4142 22.6163 24.9497 22.0808 25.2852 21.4223C25.6667 20.6736 25.6667 19.6935 25.6667 17.7333V10.2666C25.6667 8.30644 25.6667 7.32635 25.2852 6.57766C24.9497 5.91909 24.4142 5.38366 23.7557 5.0481C23.007 4.66663 22.0269 4.66663 20.0667 4.66663H7.93337C5.97319 4.66663 4.9931 4.66663 4.24441 5.0481C3.58584 5.38366 3.05041 5.91909 2.71485 6.57766C2.33337 7.32635 2.33337 8.30644 2.33337 10.2666V17.7333C2.33337 19.6935 2.33337 20.6736 2.71485 21.4223C3.05041 22.0808 3.58584 22.6163 4.24441 22.9518C4.9931 23.3333 5.97319 23.3333 7.93337 23.3333Z" stroke="#632FAC" stroke-width="2" stroke-linecap="round" stroke-linejoin="round"/>
</svg>
