<svg width="16" height="16" viewBox="0 0 16 16" fill="none" xmlns="http://www.w3.org/2000/svg">
<path d="M7.99992 10C9.10449 10 9.99992 9.10456 9.99992 8C9.99992 6.89543 9.10449 6 7.99992 6C6.89535 6 5.99992 6.89543 5.99992 8C5.99992 9.10456 6.89535 10 7.99992 10Z" stroke="#344054" stroke-width="1.5" stroke-linecap="round" stroke-linejoin="round"/>
<path d="M12.4848 9.81818C12.4041 10.001 12.38 10.2037 12.4157 10.4004C12.4513 10.597 12.545 10.7784 12.6848 10.9212L12.7211 10.9576C12.8338 11.0701 12.9232 11.2038 12.9842 11.351C13.0452 11.4981 13.0766 11.6559 13.0766 11.8151C13.0766 11.9744 13.0452 12.1322 12.9842 12.2793C12.9232 12.4265 12.8338 12.5601 12.7211 12.6727C12.6086 12.7854 12.4749 12.8748 12.3277 12.9358C12.1806 12.9968 12.0228 13.0282 11.8636 13.0282C11.7043 13.0282 11.5465 12.9968 11.3994 12.9358C11.2522 12.8748 11.1186 12.7854 11.006 12.6727L10.9696 12.6364C10.8268 12.4966 10.6454 12.4029 10.4488 12.3673C10.2522 12.3316 10.0494 12.3557 9.86659 12.4364C9.68733 12.5132 9.53445 12.6408 9.42677 12.8034C9.31909 12.966 9.2613 13.1565 9.26052 13.3515V13.4545C9.26052 13.776 9.13282 14.0843 8.9055 14.3116C8.67819 14.539 8.36988 14.6667 8.0484 14.6667C7.72693 14.6667 7.41862 14.539 7.1913 14.3116C6.96399 14.0843 6.83628 13.776 6.83628 13.4545V13.4C6.83159 13.1994 6.76666 13.0048 6.64993 12.8416C6.53319 12.6784 6.37006 12.5541 6.18174 12.4848C5.99894 12.4042 5.79617 12.3801 5.59956 12.4158C5.40296 12.4514 5.22154 12.5451 5.07871 12.6848L5.04234 12.7212C4.92977 12.8339 4.79609 12.9233 4.64894 12.9843C4.50179 13.0453 4.34406 13.0767 4.18477 13.0767C4.02548 13.0767 3.86775 13.0453 3.7206 12.9843C3.57345 12.9233 3.43976 12.8339 3.32719 12.7212C3.21449 12.6086 3.12509 12.475 3.06409 12.3278C3.00309 12.1807 2.97169 12.0229 2.97169 11.8636C2.97169 11.7043 3.00309 11.5466 3.06409 11.3995C3.12509 11.2523 3.21449 11.1186 3.32719 11.0061L3.36356 10.9697C3.50327 10.8269 3.597 10.6454 3.63265 10.4488C3.6683 10.2522 3.64423 10.0495 3.56355 9.86666C3.48673 9.68741 3.35916 9.53453 3.19656 9.42685C3.03396 9.31917 2.84343 9.26138 2.6484 9.2606H2.54537C2.2239 9.2606 1.91559 9.1329 1.68827 8.90558C1.46096 8.67826 1.33325 8.36995 1.33325 8.04848C1.33325 7.72701 1.46096 7.4187 1.68827 7.19138C1.91559 6.96406 2.2239 6.83636 2.54537 6.83636H2.59992C2.80052 6.83167 2.99507 6.76673 3.15828 6.65C3.32149 6.53327 3.44581 6.37014 3.51507 6.18181C3.59575 5.99902 3.61981 5.79624 3.58416 5.59964C3.54852 5.40304 3.45479 5.22162 3.31507 5.07878L3.27871 5.04242C3.16601 4.92985 3.0766 4.79616 3.0156 4.64901C2.9546 4.50186 2.92321 4.34413 2.92321 4.18484C2.92321 4.02555 2.9546 3.86782 3.0156 3.72067C3.0766 3.57352 3.16601 3.43984 3.27871 3.32727C3.39128 3.21457 3.52496 3.12516 3.67211 3.06417C3.81926 3.00317 3.97699 2.97177 4.13628 2.97177C4.29557 2.97177 4.4533 3.00317 4.60045 3.06417C4.7476 3.12516 4.88128 3.21457 4.99386 3.32727L5.03022 3.36363C5.17306 3.50335 5.35447 3.59708 5.55108 3.63272C5.74768 3.66837 5.95045 3.64431 6.13325 3.56363H6.18174C6.36099 3.48681 6.51387 3.35924 6.62155 3.19664C6.72923 3.03404 6.78702 2.8435 6.7878 2.64848V2.54545C6.7878 2.22397 6.9155 1.91567 7.14282 1.68835C7.37014 1.46103 7.67844 1.33333 7.99992 1.33333C8.32139 1.33333 8.6297 1.46103 8.85702 1.68835C9.08433 1.91567 9.21204 2.22397 9.21204 2.54545V2.59999C9.21282 2.79502 9.27061 2.98556 9.37829 3.14816C9.48597 3.31076 9.63885 3.43832 9.8181 3.51515C10.0009 3.59582 10.2037 3.61989 10.4003 3.58424C10.5969 3.54859 10.7783 3.45487 10.9211 3.31515L10.9575 3.27878C11.0701 3.16608 11.2038 3.07668 11.3509 3.01568C11.4981 2.95468 11.6558 2.92328 11.8151 2.92328C11.9744 2.92328 12.1321 2.95468 12.2792 3.01568C12.4264 3.07668 12.5601 3.16608 12.6726 3.27878C12.7853 3.39136 12.8748 3.52504 12.9357 3.67219C12.9967 3.81934 13.0281 3.97707 13.0281 4.13636C13.0281 4.29565 12.9967 4.45338 12.9357 4.60053C12.8748 4.74768 12.7853 4.88136 12.6726 4.99393L12.6363 5.0303C12.4966 5.17313 12.4028 5.35455 12.3672 5.55115C12.3315 5.74776 12.3556 5.95053 12.4363 6.13333V6.18181C12.5131 6.36107 12.6407 6.51395 12.8033 6.62163C12.9659 6.72931 13.1564 6.7871 13.3514 6.78787H13.4545C13.7759 6.78787 14.0842 6.91558 14.3116 7.1429C14.5389 7.37021 14.6666 7.67852 14.6666 8C14.6666 8.32147 14.5389 8.62978 14.3116 8.85709C14.0842 9.08441 13.7759 9.21212 13.4545 9.21212H13.3999C13.2049 9.21289 13.0144 9.27068 12.8518 9.37836C12.6892 9.48605 12.5616 9.63892 12.4848 9.81818Z" stroke="#344054" stroke-width="1.5" stroke-linecap="round" stroke-linejoin="round"/>
</svg>
